<svg width="512" height="512" viewBox="0 0 512 512" fill="none" xmlns="http://www.w3.org/2000/svg">
  <defs>
    <linearGradient id="bg-grad" x1="0%" y1="0%" x2="100%" y2="100%">
      <stop offset="0%" stop-color="#000000"/>
      <stop offset="100%" stop-color="#0a0a1a"/>
    </linearGradient>
    <linearGradient id="eye-grad" x1="0%" y1="0%" x2="100%" y2="100%">
      <stop offset="0%" stop-color="#00F0FF"/>
      <stop offset="100%" stop-color="#A855F7"/>
    </linearGradient>
    <radialGradient id="iris-grad" cx="50%" cy="50%" r="50%">
      <stop offset="0%" stop-color="#00F0FF" stop-opacity="0.95"/>
      <stop offset="55%" stop-color="#A855F7" stop-opacity="0.7"/>
      <stop offset="100%" stop-color="#A855F7" stop-opacity="0.3"/>
    </radialGradient>
  </defs>
  <!-- Background -->
  <rect width="512" height="512" rx="108" fill="url(#bg-grad)"/>
  <!-- Outer glow ring -->
  <circle cx="256" cy="256" r="200" stroke="url(#eye-grad)" stroke-width="3" fill="none" opacity="0.4"/>
  <!-- Eye shape -->
  <path d="M56 256C56 256 128 108 256 108C384 108 456 256 456 256C456 256 384 404 256 404C128 404 56 256 56 256Z" fill="rgba(0,240,255,0.06)" stroke="url(#eye-grad)" stroke-width="4"/>
  <!-- Iris -->
  <circle cx="256" cy="256" r="100" fill="url(#iris-grad)"/>
  <!-- Pupil -->
  <circle cx="256" cy="256" r="44" fill="#000000"/>
  <!-- Pupil highlight -->
  <circle cx="236" cy="234" r="18" fill="rgba(255,255,255,0.7)"/>
  <circle cx="270" cy="248" r="7" fill="rgba(255,255,255,0.3)"/>
  <!-- Orbital dots -->
  <circle cx="256" cy="68" r="8" fill="#00F0FF" opacity="0.7"/>
  <circle cx="444" cy="256" r="7" fill="#A855F7" opacity="0.5"/>
  <circle cx="256" cy="444" r="7" fill="#00F0FF" opacity="0.5"/>
  <circle cx="68" cy="256" r="7" fill="#A855F7" opacity="0.5"/>
</svg>
